<?xml version="1.0" standalone="no"?>
<!DOCTYPE svg PUBLIC "-//W3C//DTD SVG 20010904//EN"
 "http://www.w3.org/TR/2001/REC-SVG-20010904/DTD/svg10.dtd">
<svg version="1.0" xmlns="http://www.w3.org/2000/svg"
 width="300.000000pt" height="300.000000pt" viewBox="0 0 300.000000 300.000000"
 preserveAspectRatio="xMidYMid meet">
<metadata>
Created by potrace 1.10, written by Peter Selinger 2001-2011
</metadata>
<g transform="translate(0.000000,300.000000) scale(0.100000,-0.100000)"
fill="#000000" stroke="none">
<path d="M1024 2489 c-125 -48 -299 -175 -399 -291 -27 -33 -56 -65 -62 -73
-7 -7 -13 -16 -13 -19 0 -3 -19 -36 -43 -73 -61 -95 -80 -140 -85 -199 -5 -65
11 -115 51 -155 66 -66 164 -80 242 -35 43 26 63 53 143 194 61 107 173 207
308 275 126 63 170 158 127 269 -21 56 -46 82 -99 107 -54 26 -104 26 -170 0z
m152 -28 c48 -22 89 -71 99 -119 18 -85 -26 -152 -139 -208 -90 -45 -148 -88
-212 -156 -62 -66 -108 -133 -139 -201 -37 -84 -95 -127 -171 -127 -85 0 -153
63 -162 150 -4 42 1 61 31 124 113 237 316 435 547 532 67 28 93 29 146 5z"/>
<path d="M1755 2499 c-73 -27 -129 -108 -127 -184 1 -93 36 -146 122 -190 179
-91 281 -189 360 -346 92 -182 100 -418 20 -595 -57 -126 -154 -250 -245 -311
-16 -11 -61 -37 -100 -58 -109 -57 -150 -104 -158 -180 -10 -93 46 -181 132
-210 58 -19 101 -14 169 21 26 13 51 24 55 24 4 0 46 25 92 55 87 57 217 177
277 255 33 43 118 177 118 185 0 3 11 28 24 57 28 62 60 175 77 274 18 106 3
403 -22 429 -5 5 -9 18 -9 30 0 40 -41 143 -101 251 -33 60 -66 114 -72 119
-7 6 -27 30 -46 55 -43 57 -144 146 -239 211 -138 95 -255 134 -327 108z m194
-65 c290 -145 495 -402 577 -724 27 -105 27 -393 1 -495 -56 -215 -148 -378
-298 -528 -139 -137 -349 -256 -430 -242 -89 15 -155 100 -145 184 10 74 36
102 145 161 207 111 347 286 398 498 21 88 21 256 0 344 -51 212 -192 390
-394 497 -107 56 -138 88 -148 157 -12 71 29 143 100 175 61 28 94 23 194 -27z"/>
<path d="M1055 1946 c-51 -23 -77 -60 -90 -127 -7 -33 31 -105 68 -131 32 -23
33 -23 422 -23 360 0 393 1 418 18 77 50 92 183 28 235 -51 40 -71 42 -450 42
-283 -1 -373 -4 -396 -14z m802 -36 c79 -48 76 -162 -7 -205 -26 -14 -79 -15
-410 -13 l-380 3 -31 31 c-35 36 -47 95 -27 134 7 13 29 35 47 47 34 23 35 23
405 23 350 0 373 -1 403 -20z"/>
<path d="M1055 1596 c-51 -23 -81 -58 -76 -88 0 -5 -3 -8 -9 -8 -5 0 -10 -13
-10 -29 0 -65 55 -144 108 -154 15 -3 102 -5 195 -4 106 1 167 -2 167 -8 0 -7
3 -7 8 0 4 6 16 11 27 13 46 6 97 30 90 42 -3 5 -2 10 2 10 15 0 44 76 41 108
-1 17 -5 29 -9 26 -4 -2 -9 9 -12 24 -4 19 -19 35 -49 52 -41 24 -51 25 -243
28 -154 2 -207 -1 -230 -12z m445 -31 c41 -21 60 -53 60 -100 -1 -49 -17 -80
-56 -106 -26 -17 -48 -19 -224 -19 -208 0 -228 4 -262 50 -31 42 -33 90 -6
130 38 56 53 60 266 60 152 0 199 -3 222 -15z"/>
<path d="M1710 1589 c-56 -22 -89 -94 -76 -164 23 -120 205 -143 262 -34 25
49 15 133 -19 165 -46 43 -110 55 -167 33z m141 -48 c31 -31 39 -46 39 -76 0
-68 -56 -125 -123 -125 -37 0 -90 41 -105 82 -19 48 -9 83 33 125 27 27 41 33
75 33 36 0 48 -6 81 -39z"/>
<path d="M555 1293 c-35 -9 -84 -52 -111 -99 -39 -67 -31 -132 31 -249 44 -82
60 -108 105 -169 33 -45 190 -193 246 -233 67 -47 186 -111 224 -118 50 -11
118 -7 146 8 33 17 76 61 93 94 13 26 15 132 2 166 -16 41 -72 90 -147 127
-80 40 -74 36 -139 92 -100 86 -142 142 -194 258 -16 36 -81 104 -111 116 -27
11 -113 16 -145 7z m162 -51 c20 -14 47 -54 73 -107 78 -156 188 -265 352
-350 106 -56 133 -91 133 -176 -1 -46 -6 -63 -28 -93 -60 -78 -140 -90 -249
-37 -222 106 -409 293 -514 516 -31 64 -36 83 -32 126 6 56 28 93 79 127 45
31 138 28 186 -6z"/>
<path d="M1255 1260 c-229 -6 -235 -8 -274 -85 -36 -73 -19 -136 53 -189 27
-20 39 -21 421 -21 382 0 394 1 421 21 46 34 64 66 66 116 2 58 -23 108 -66
134 -27 16 -59 20 -226 24 -107 3 -285 3 -395 0z m626 -68 c23 -26 29 -41 29
-80 0 -28 -7 -57 -16 -71 -34 -48 -57 -51 -446 -51 -342 0 -365 1 -395 20 -36
21 -63 66 -63 103 0 31 39 88 70 104 19 10 114 12 408 11 l384 -3 29 -33z"/>
</g>
</svg>
